<?xml version="1.0" encoding="UTF-8" standalone="no"?>
<!-- Created with Inkscape (http://www.inkscape.org/) -->

<svg
   version="1.1"
   id="svg1"
   width="819.20001"
   height="942.93335"
   viewBox="0 0 819.20001 942.93335"
   sodipodi:docname="Logo-text.svg"
   inkscape:version="1.4.1 (unknown)"
   inkscape:export-filename="Logo-text.svg"
   inkscape:export-xdpi="96"
   inkscape:export-ydpi="96"
   xmlns:inkscape="http://www.inkscape.org/namespaces/inkscape"
   xmlns:sodipodi="http://sodipodi.sourceforge.net/DTD/sodipodi-0.dtd"
   xmlns="http://www.w3.org/2000/svg"
   xmlns:svg="http://www.w3.org/2000/svg">
  <defs
     id="defs1">
    <clipPath
       clipPathUnits="userSpaceOnUse"
       id="clipPath6">
      <rect
         style="fill:#f9f9f9;fill-opacity:0;stroke-width:0.999999"
         id="rect6"
         width="794.62738"
         height="226.32713"
         x="14.777441"
         y="-948.52136"
         rx="6"
         ry="6.0000005"
         transform="scale(1,-1)" />
    </clipPath>
  </defs>
  <sodipodi:namedview
     id="namedview1"
     pagecolor="#ffffff"
     bordercolor="#666666"
     borderopacity="1.0"
     inkscape:showpageshadow="2"
     inkscape:pageopacity="0.0"
     inkscape:pagecheckerboard="0"
     inkscape:deskcolor="#d1d1d1"
     inkscape:zoom="0.70710678"
     inkscape:cx="381.83766"
     inkscape:cy="428.50671"
     inkscape:window-width="1920"
     inkscape:window-height="1000"
     inkscape:window-x="0"
     inkscape:window-y="0"
     inkscape:window-maximized="1"
     inkscape:current-layer="svg1">
    <inkscape:page
       x="0"
       y="0"
       width="819.20001"
       height="942.93335"
       id="page2"
       margin="0"
       bleed="0" />
  </sodipodi:namedview>
  <rect
     style="fill:#e6e6e6;fill-opacity:1"
     id="rect1"
     width="800"
     height="238"
     x="9.6000071"
     y="352.46667"
     ry="6.0000005"
     rx="6.0000005" />
  <g
     inkscape:groupmode="layer"
     inkscape:label="Image"
     id="g1">
    <g
       id="g29"
       transform="translate(-4.2627232,-41.194244)"
       inkscape:label="g29">
      <path
         style="fill:#105342"
         d="m 284.8,856.03188 v -66.69853 h 12.8 12.8 v 5.97716 5.97717 l 3.763,-3.30395 c 11.89231,-10.44159 30.94704,-13.49034 46.90367,-7.50456 4.71915,1.77028 8.11468,4.11407 12.92878,8.92417 10.54787,10.53912 15.33789,22.31375 15.33789,37.70297 0,16.41771 -5.34276,30.0246 -15.59723,39.72284 -15.3277,14.4963 -39.70531,16.79235 -56.39229,5.31141 l -4.76608,-3.27915 -0.28887,21.63597 -0.28887,21.63597 -13.6,0.29853 -13.6,0.29854 z m 60.21389,8.2348 c 11.31667,-3.2737 19.78612,-14.34592 19.78612,-25.86667 0,-14.43302 -13.65406,-27.8432 -28.19002,-27.68651 -17.65965,0.19036 -29.85226,17.81159 -24.66671,35.64926 3.13773,10.79339 7.24776,15.20032 17.0335,18.26396 5.96193,1.86651 8.54037,1.80863 16.03711,-0.36004 z M 196.3732,888.55393 c -9.69042,-2.62581 -15.12332,-5.72912 -21.68175,-12.38477 -5.42759,-5.50804 -11.77775,-17.21381 -13.54531,-24.96915 -2.74585,-12.04773 -0.49401,-28.52108 5.41391,-39.60547 18.37352,-34.47225 75.81168,-33.52166 92.54103,1.53152 1.74992,3.66664 3.67632,8.81326 4.28089,11.43695 1.39426,6.05074 1.41903,20.37938 0.0461,26.637 -1.48892,6.78605 -6.37102,18.12895 -7.81471,18.15642 -0.66733,0.0127 -1.93332,1.56828 -2.81332,3.45684 -2.18628,4.69197 -10.68621,10.81246 -19.70497,14.18884 -10.4693,3.91942 -25.62128,4.55973 -36.72183,1.55182 z m 26.06809,-24.42429 c 6.2468,-2.83755 12.81573,-10.7644 14.40283,-17.38017 4.31174,-17.97335 -5.33575,-34.34414 -21.08074,-35.77185 -15.61729,-1.41613 -26.92934,8.80958 -28.66706,25.91402 -0.80939,7.96695 2.0945,16.3099 7.67763,22.05801 6.52841,6.72133 19.0947,9.07404 27.66734,5.17999 z m 218.02934,24.43572 c -5.06161,-2.67616 -10.14886,-8.01017 -12.6914,-13.30699 -3.30481,-6.88482 -4.29588,-16.53769 -4.3045,-41.92502 l -0.008,-23.73334 H 412.80007 402.1334 v -10.13333 -10.13333 h 11.73333 11.73334 v -12.8 -12.8 h 12.26666 12.26667 v 12.8 12.8 h 12.26667 12.26666 v 10.13333 10.13333 H 462.9334 451.20007 v 23.44509 c 0,32.42639 0.30152,33.03952 16.26666,33.07651 l 5.06667,0.0117 v 11.57523 11.57524 l -8.8,0.68504 c -13.95967,1.08669 -19.14449,0.77388 -23.26271,-1.4035 z m 89.77826,0.94761 c -6.07885,-1.19382 -17.3598,-6.4962 -22.52595,-10.58786 -8.95118,-7.08947 -16.58138,-22.85202 -17.74912,-36.66634 -2.82825,-33.45821 20.49678,-57.79853 53.49285,-55.82128 13.6959,0.82071 20.73944,3.71446 28.89019,11.86918 11.13032,11.13575 16.99983,27.66894 14.35159,40.42546 l -1.21299,5.84293 -18.34773,0.74661 c -10.09124,0.41064 -25.37713,0.58125 -33.96863,0.37914 l -15.6209,-0.36746 1.96992,3.85757 c 5.00017,9.79152 11.11946,13.99303 23.31309,16.00676 9.24693,1.5271 19.98734,0.0498 28.32936,-3.89662 8.11674,-3.83983 8.53753,-3.66461 9.9784,4.15527 2.5126,13.63641 1.9149,15.28292 -7.21543,19.87635 -9.00569,4.53073 -31.12323,6.64721 -43.68465,4.18029 z m 30.51764,-63.97827 c -1.33993,-9.9899 -9.61206,-16.43622 -21.11684,-16.45597 -5.96557,-0.0102 -7.80166,0.47308 -12.2539,3.22569 -5.6841,3.51421 -10.01615,9.82321 -10.0449,14.62893 l -0.0176,2.93333 h 22.00712 22.00711 z m 83.72268,63.50517 c -12.92809,-2.80726 -25.28137,-10.43901 -31.54098,-19.48575 -6.97733,-10.08403 -10.41321,-26.54777 -8.26621,-39.60926 2.40255,-14.61613 12.9695,-30.41718 24.56029,-36.72568 15.60268,-8.49205 40.80498,-9.27877 55.59128,-1.73537 3.47751,1.7741 4.23309,2.71704 4.23309,5.28282 0,3.08946 -4.99413,20.30005 -5.89062,20.30005 -0.25546,0 -4.19457,-1.25647 -8.75359,-2.79215 -7.08182,-2.38548 -9.50711,-2.70993 -16.65157,-2.22764 -10.45902,0.70606 -16.69146,4.15881 -21.47603,11.89767 -2.93943,4.75442 -3.22737,6.04 -3.21897,14.37181 0.0103,10.2481 1.26073,13.54915 7.493,19.78142 6.36272,6.36272 9.42558,7.45624 20.76444,7.41343 7.93705,-0.03 11.35563,-0.54467 15.77283,-2.37474 8.71371,-3.61013 9.1085,-3.43042 11.88038,5.40804 3.3122,10.56134 2.88713,12.41152 -3.65321,15.901 -10.50725,5.60595 -27.42284,7.50871 -40.84413,4.59435 z m 132.08166,-2.56973 c -0.67821,-1.26725 -1.10419,-12.54028 -1.10419,-29.22098 0,-24.43631 -0.22091,-27.87297 -2.20443,-34.29488 -2.08663,-6.75571 -2.46592,-7.25279 -7.09742,-9.30152 -9.01915,-3.9896 -19.37268,-0.46149 -24.10438,8.21392 -2.20202,4.03732 -2.34241,5.78609 -2.61184,32.53333 -0.1566,15.54667 -0.52574,29.34667 -0.82032,30.66667 -0.52043,2.33209 -0.91232,2.4 -13.8486,2.4 h -13.31301 v -67.23283 -67.23283 l 13.06666,0.2995 13.06667,0.29949 0.53333,23.25365 0.53334,23.25365 4.15211,-4.2544 c 6.60628,-6.76902 13.13567,-9.128 25.18122,-9.09762 11.73369,0.0296 17.17438,1.92324 24.47448,8.51845 9.64602,8.7146 10.70674,14.52869 10.71746,58.74549 0.007,29.31237 -0.19037,33.29535 -1.67918,33.86666 -0.92798,0.3561 -6.67109,0.64746 -12.76247,0.64746 -9.85807,0 -11.19658,-0.22675 -12.17943,-2.06321 z M 24.533334,820.26668 v -67.2 h 13.866667 13.866666 v 28.26667 28.26666 H 81.600001 110.93333 V 781.33335 753.06668 H 124.8 138.66667 v 67.2 67.2 H 124.8 110.93333 V 859.73335 832.00001 H 81.600001 52.266667 v 27.73334 27.73333 H 38.400001 24.533334 Z M 726.56393,405.32946 c -7.15055,-5.17984 -14.50932,-16.56932 -17.23842,-26.68065 -1.14085,-4.22683 -4.18765,-22.22426 -4.24054,-25.0488 -0.011,-0.58667 -1.47723,2.01371 -3.25832,5.77862 -3.5552,7.51508 -13.3882,20.35471 -15.5883,20.35471 -2.20348,0 -4.33362,-4.1408 -6.83388,-13.28444 -3.26313,-11.93348 -2.60855,-22.46721 1.97071,-31.71324 4.24249,-8.56607 11.88407,-17.27801 17.22027,-19.63234 4.51952,-1.99401 4.65365,-3.34889 0.75952,-7.6723 l -2.19381,-2.43564 5.99095,-5.99095 5.99094,-5.99094 3.10221,2.55992 c 1.70621,1.40796 4.85612,4.77911 6.99979,7.49145 4.36032,5.51698 8.75335,7.96855 18.24826,10.18356 11.97795,2.79426 22.14502,11.53834 28.55463,24.55811 3.07515,6.24651 3.39097,7.89039 3.86125,20.09821 0.28169,7.3124 0.19368,13.29527 -0.19559,13.29527 -2.33792,0 -14.25257,-7.18624 -20.00839,-12.06792 l -6.77187,-5.74342 -0.0786,12.37233 c -0.059,9.28481 -0.6599,14.44554 -2.408,20.68008 -2.17243,7.74789 -8.02892,22.09226 -9.01979,22.09226 -0.24211,0 -2.43046,-1.44175 -4.86302,-3.20388 z M 564.4994,195.61891 c -7.37897,-3.76243 -10.59757,-12.77021 -7.15508,-20.02472 6.62171,-13.95421 26.96265,-10.74798 29.01775,4.5739 1.54002,11.48174 -11.53056,20.719 -21.86267,15.45082 z"
         id="path29"
         clip-path="url(#clipPath6)"
         transform="translate(1.0555355e-6,-309.80141)" />
    </g>
  </g>
</svg>
